<?xml version="1.0" encoding="UTF-8" standalone="no"?>
<!-- Created with Inkscape (http://www.inkscape.org/) -->

<svg
   xmlns:dc="http://purl.org/dc/elements/1.1/"
   xmlns:cc="http://creativecommons.org/ns#"
   xmlns:rdf="http://www.w3.org/1999/02/22-rdf-syntax-ns#"
   xmlns:svg="http://www.w3.org/2000/svg"
   xmlns="http://www.w3.org/2000/svg"
   xmlns:sodipodi="http://sodipodi.sourceforge.net/DTD/sodipodi-0.dtd"
   xmlns:inkscape="http://www.inkscape.org/namespaces/inkscape"
   version="1.1"
   id="svg2"
   xml:space="preserve"
   width="621.47241"
   height="456.48019"
   viewBox="0 0 621.47242 456.48019"
   sodipodi:docname="notch.svg"
   inkscape:version="0.92.3 (2405546, 2018-03-11)"><metadata
     id="metadata8"><rdf:RDF><cc:Work
         rdf:about=""><dc:format>image/svg+xml</dc:format><dc:type
           rdf:resource="http://purl.org/dc/dcmitype/StillImage" /><dc:title></dc:title></cc:Work></rdf:RDF></metadata><defs
     id="defs6"><marker
       inkscape:stockid="Arrow2Lend"
       orient="auto"
       refY="0"
       refX="0"
       id="Arrow2Lend"
       style="overflow:visible"
       inkscape:isstock="true"><path
         id="path5020"
         style="fill:#f80000;fill-opacity:1;fill-rule:evenodd;stroke:#f80000;stroke-width:0.625;stroke-linejoin:round;stroke-opacity:1"
         d="M 8.7185878,4.0337352 -2.2072895,0.01601326 8.7185884,-4.0017078 c -1.7454984,2.3720609 -1.7354408,5.6174519 -6e-7,8.035443 z"
         transform="matrix(-1.1,0,0,-1.1,-1.1,0)"
         inkscape:connector-curvature="0" /></marker><marker
       inkscape:stockid="Arrow2Lstart"
       orient="auto"
       refY="0"
       refX="0"
       id="Arrow2Lstart"
       style="overflow:visible"
       inkscape:isstock="true"><path
         id="path5017"
         style="fill:#f80000;fill-opacity:1;fill-rule:evenodd;stroke:#f80000;stroke-width:0.625;stroke-linejoin:round;stroke-opacity:1"
         d="M 8.7185878,4.0337352 -2.2072895,0.01601326 8.7185884,-4.0017078 c -1.7454984,2.3720609 -1.7354408,5.6174519 -6e-7,8.035443 z"
         transform="matrix(1.1,0,0,1.1,1.1,0)"
         inkscape:connector-curvature="0" /></marker><clipPath
       clipPathUnits="userSpaceOnUse"
       id="clipPath20"><path
         d="M 6,6 V 3430 H 4610 V 6 Z"
         id="path18"
         inkscape:connector-curvature="0" /></clipPath><clipPath
       clipPathUnits="userSpaceOnUse"
       id="clipPath32"><path
         d="m 582,383.398 h 3571 v 2639 H 582 Z"
         id="path30"
         inkscape:connector-curvature="0" /></clipPath><clipPath
       clipPathUnits="userSpaceOnUse"
       id="clipPath42"><path
         d="M 6,6 V 3430 H 4610 V 6 Z"
         id="path40"
         inkscape:connector-curvature="0" /></clipPath><clipPath
       clipPathUnits="userSpaceOnUse"
       id="clipPath64"><path
         d="m 582,383.398 h 3571 v 2639 H 582 Z"
         id="path62"
         inkscape:connector-curvature="0" /></clipPath><clipPath
       clipPathUnits="userSpaceOnUse"
       id="clipPath74"><path
         d="M 6,6 V 3430 H 4610 V 6 Z"
         id="path72"
         inkscape:connector-curvature="0" /></clipPath><clipPath
       clipPathUnits="userSpaceOnUse"
       id="clipPath96"><path
         d="m 582,383.398 h 3571 v 2639 H 582 Z"
         id="path94"
         inkscape:connector-curvature="0" /></clipPath><clipPath
       clipPathUnits="userSpaceOnUse"
       id="clipPath106"><path
         d="M 6,6 V 3430 H 4610 V 6 Z"
         id="path104"
         inkscape:connector-curvature="0" /></clipPath><clipPath
       clipPathUnits="userSpaceOnUse"
       id="clipPath206"><path
         d="m 582,383.398 h 3571 v 2639 H 582 Z"
         id="path204"
         inkscape:connector-curvature="0" /></clipPath><clipPath
       clipPathUnits="userSpaceOnUse"
       id="clipPath216"><path
         d="M 6,6 V 3430 H 4610 V 6 Z"
         id="path214"
         inkscape:connector-curvature="0" /></clipPath><clipPath
       clipPathUnits="userSpaceOnUse"
       id="clipPath234"><path
         d="m 582,383.398 h 3571 v 2639 H 582 Z"
         id="path232"
         inkscape:connector-curvature="0" /></clipPath><clipPath
       clipPathUnits="userSpaceOnUse"
       id="clipPath244"><path
         d="M 6,6 V 3430 H 4610 V 6 Z"
         id="path242"
         inkscape:connector-curvature="0" /></clipPath><clipPath
       clipPathUnits="userSpaceOnUse"
       id="clipPath262"><path
         d="m 582,383.398 h 3571 v 2639 H 582 Z"
         id="path260"
         inkscape:connector-curvature="0" /></clipPath><clipPath
       clipPathUnits="userSpaceOnUse"
       id="clipPath272"><path
         d="M 6,6 V 3430 H 4610 V 6 Z"
         id="path270"
         inkscape:connector-curvature="0" /></clipPath><clipPath
       clipPathUnits="userSpaceOnUse"
       id="clipPath290"><path
         d="m 582,383.398 h 3571 v 2639 H 582 Z"
         id="path288"
         inkscape:connector-curvature="0" /></clipPath><clipPath
       clipPathUnits="userSpaceOnUse"
       id="clipPath300"><path
         d="M 6,6 V 3430 H 4610 V 6 Z"
         id="path298"
         inkscape:connector-curvature="0" /></clipPath><clipPath
       clipPathUnits="userSpaceOnUse"
       id="clipPath318"><path
         d="m 582,383.398 h 3571 v 2639 H 582 Z"
         id="path316"
         inkscape:connector-curvature="0" /></clipPath><clipPath
       clipPathUnits="userSpaceOnUse"
       id="clipPath328"><path
         d="M 6,6 V 3430 H 4610 V 6 Z"
         id="path326"
         inkscape:connector-curvature="0" /></clipPath><clipPath
       clipPathUnits="userSpaceOnUse"
       id="clipPath346"><path
         d="m 582,383.398 h 3571 v 2639 H 582 Z"
         id="path344"
         inkscape:connector-curvature="0" /></clipPath><clipPath
       clipPathUnits="userSpaceOnUse"
       id="clipPath356"><path
         d="M 6,6 V 3430 H 4610 V 6 Z"
         id="path354"
         inkscape:connector-curvature="0" /></clipPath><clipPath
       clipPathUnits="userSpaceOnUse"
       id="clipPath378"><path
         d="m 582,383.398 h 3571 v 2639 H 582 Z"
         id="path376"
         inkscape:connector-curvature="0" /></clipPath><clipPath
       clipPathUnits="userSpaceOnUse"
       id="clipPath400"><path
         d="M 6,6 V 3430 H 4610 V 6 Z"
         id="path398"
         inkscape:connector-curvature="0" /></clipPath></defs><sodipodi:namedview
     pagecolor="#ffffff"
     bordercolor="#666666"
     borderopacity="1"
     objecttolerance="10"
     gridtolerance="10"
     guidetolerance="10"
     inkscape:pageopacity="0"
     inkscape:pageshadow="2"
     inkscape:window-width="1920"
     inkscape:window-height="1005"
     id="namedview4"
     showgrid="false"
     inkscape:zoom="1.4595673"
     inkscape:cx="145.80474"
     inkscape:cy="174.40616"
     inkscape:window-x="-9"
     inkscape:window-y="-9"
     inkscape:window-maximized="1"
     inkscape:current-layer="g10" /><g
     id="g10"
     inkscape:groupmode="layer"
     inkscape:label="ink_ext_XXXXXX"
     transform="matrix(1.3333333,0,0,-1.3333333,6.805779,457.33332)"><g
   id="g12"
   transform="scale(0.1)"><g
     id="g14"><g
       id="g16"
       clip-path="url(#clipPath20)"><path
         d="M 6,6.39844 H 4614 V 3433.5984 H 6 Z"
         style="fill:#ffffff;fill-opacity:1;fill-rule:nonzero;stroke:none"
         id="path22"
         inkscape:connector-curvature="0" /><path
         d="m 582,383.391 h 3571.2 v 2638.95 H 582 Z"
         style="fill:#ffffff;fill-opacity:1;fill-rule:nonzero;stroke:none"
         id="path24"
         inkscape:connector-curvature="0" /></g></g><g
     id="g26"><g
       id="g28"
       clip-path="url(#clipPath32)"><path
         d="M 744.328,383.391 V 3022.34"
         style="fill:none;stroke:#b0b0b0;stroke-width:8;stroke-linecap:square;stroke-linejoin:round;stroke-miterlimit:10;stroke-dasharray:none;stroke-opacity:1"
         id="path34"
         inkscape:connector-curvature="0" /></g></g><g
     id="g36"><g
       id="g38"
       clip-path="url(#clipPath42)"><path
         d="m 744.328,383.391 v -35"
         style="fill:#000000;fill-opacity:1;fill-rule:nonzero;stroke:none"
         id="path44"
         inkscape:connector-curvature="0" /><path
         d="m 744.328,383.391 v -35"
         style="fill:none;stroke:#000000;stroke-width:8;stroke-linecap:butt;stroke-linejoin:round;stroke-miterlimit:10;stroke-dasharray:none;stroke-opacity:1"
         id="path46"
         inkscape:connector-curvature="0" /><g
         id="g48"
         transform="scale(10)"><text
   transform="matrix(1,0,0,-1,65.4328,23.3938)"
   style="font-variant:normal;font-weight:normal;font-size:10px;font-family:Arial;-inkscape-font-specification:Arial;writing-mode:lr-tb;fill:#000000;fill-opacity:1;fill-rule:nonzero;stroke:none"
   id="text52"><tspan
     x="0 6.362112"
     y="0"
     sodipodi:role="line"
     id="tspan50">10</tspan></text>


<text
   transform="matrix(1,0,0,-1,78.2531,27.22193)"
   style="font-variant:normal;font-weight:normal;font-size:7px;font-family:Arial;-inkscape-font-specification:Arial;writing-mode:lr-tb;fill:#000000;fill-opacity:1;fill-rule:nonzero;stroke:none"
   id="text56"><tspan
     x="0"
     y="0"
     id="tspan54">2</tspan></text>


</g></g></g><g
     id="g58"><g
       id="g60"
       clip-path="url(#clipPath64)"><path
         d="M 2367.6,383.391 V 3022.34"
         style="fill:none;stroke:#b0b0b0;stroke-width:8;stroke-linecap:square;stroke-linejoin:round;stroke-miterlimit:10;stroke-dasharray:none;stroke-opacity:1"
         id="path66"
         inkscape:connector-curvature="0" /></g></g><g
     id="g68"><g
       id="g70"
       clip-path="url(#clipPath74)"><path
         d="m 2367.6,383.391 v -35"
         style="fill:#000000;fill-opacity:1;fill-rule:nonzero;stroke:none"
         id="path76"
         inkscape:connector-curvature="0" /><path
         d="m 2367.6,383.391 v -35"
         style="fill:none;stroke:#000000;stroke-width:8;stroke-linecap:butt;stroke-linejoin:round;stroke-miterlimit:10;stroke-dasharray:none;stroke-opacity:1"
         id="path78"
         inkscape:connector-curvature="0" /><g
         id="g80"
         transform="scale(10)"><text
   transform="matrix(1,0,0,-1,227.76,23.3938)"
   style="font-variant:normal;font-weight:normal;font-size:10px;font-family:Arial;-inkscape-font-specification:Arial;writing-mode:lr-tb;fill:#000000;fill-opacity:1;fill-rule:nonzero;stroke:none"
   id="text84"><tspan
     x="0 6.3620996"
     y="0"
     sodipodi:role="line"
     id="tspan82">10</tspan></text>


<text
   transform="matrix(1,0,0,-1,240.5803,27.22193)"
   style="font-variant:normal;font-weight:normal;font-size:7px;font-family:Arial;-inkscape-font-specification:Arial;writing-mode:lr-tb;fill:#000000;fill-opacity:1;fill-rule:nonzero;stroke:none"
   id="text88"><tspan
     x="0"
     y="0"
     id="tspan86">3</tspan></text>


</g></g></g><g
     id="g90"><g
       id="g92"
       clip-path="url(#clipPath96)"><path
         d="M 3990.87,383.391 V 3022.34"
         style="fill:none;stroke:#b0b0b0;stroke-width:8;stroke-linecap:square;stroke-linejoin:round;stroke-miterlimit:10;stroke-dasharray:none;stroke-opacity:1"
         id="path98"
         inkscape:connector-curvature="0" /></g></g><g
     id="g100"><g
       id="g102"
       clip-path="url(#clipPath106)"><path
         d="m 3990.87,383.391 v -35"
         style="fill:#000000;fill-opacity:1;fill-rule:nonzero;stroke:none"
         id="path108"
         inkscape:connector-curvature="0" /><path
         d="m 3990.87,383.391 v -35"
         style="fill:none;stroke:#000000;stroke-width:8;stroke-linecap:butt;stroke-linejoin:round;stroke-miterlimit:10;stroke-dasharray:none;stroke-opacity:1"
         id="path110"
         inkscape:connector-curvature="0" /><g
         id="g112"
         transform="scale(10)"><text
   transform="matrix(1,0,0,-1,390.087,23.4813)"
   style="font-variant:normal;font-weight:normal;font-size:10px;font-family:Arial;-inkscape-font-specification:Arial;writing-mode:lr-tb;fill:#000000;fill-opacity:1;fill-rule:nonzero;stroke:none"
   id="text116"><tspan
     x="0 6.3624902"
     y="0"
     sodipodi:role="line"
     id="tspan114">10</tspan></text>


<text
   transform="matrix(1,0,0,-1,402.9073,27.30943)"
   style="font-variant:normal;font-weight:normal;font-size:7px;font-family:Arial;-inkscape-font-specification:Arial;writing-mode:lr-tb;fill:#000000;fill-opacity:1;fill-rule:nonzero;stroke:none"
   id="text120"><tspan
     x="0"
     y="0"
     id="tspan118">4</tspan></text>


</g><path
         d="m 587.016,383.391 v -20"
         style="fill:#000000;fill-opacity:1;fill-rule:nonzero;stroke:none"
         id="path122"
         inkscape:connector-curvature="0" /><path
         d="m 587.016,383.391 v -20"
         style="fill:none;stroke:#000000;stroke-width:6;stroke-linecap:butt;stroke-linejoin:round;stroke-miterlimit:10;stroke-dasharray:none;stroke-opacity:1"
         id="path124"
         inkscape:connector-curvature="0" /><path
         d="m 670.051,383.391 v -20"
         style="fill:#000000;fill-opacity:1;fill-rule:nonzero;stroke:none"
         id="path126"
         inkscape:connector-curvature="0" /><path
         d="m 670.051,383.391 v -20"
         style="fill:none;stroke:#000000;stroke-width:6;stroke-linecap:butt;stroke-linejoin:round;stroke-miterlimit:10;stroke-dasharray:none;stroke-opacity:1"
         id="path128"
         inkscape:connector-curvature="0" /><path
         d="m 1232.98,383.391 v -20"
         style="fill:#000000;fill-opacity:1;fill-rule:nonzero;stroke:none"
         id="path130"
         inkscape:connector-curvature="0" /><path
         d="m 1232.98,383.391 v -20"
         style="fill:none;stroke:#000000;stroke-width:6;stroke-linecap:butt;stroke-linejoin:round;stroke-miterlimit:10;stroke-dasharray:none;stroke-opacity:1"
         id="path132"
         inkscape:connector-curvature="0" /><path
         d="m 1518.83,383.391 v -20"
         style="fill:#000000;fill-opacity:1;fill-rule:nonzero;stroke:none"
         id="path134"
         inkscape:connector-curvature="0" /><path
         d="m 1518.83,383.391 v -20"
         style="fill:none;stroke:#000000;stroke-width:6;stroke-linecap:butt;stroke-linejoin:round;stroke-miterlimit:10;stroke-dasharray:none;stroke-opacity:1"
         id="path136"
         inkscape:connector-curvature="0" /><path
         d="m 1721.63,383.391 v -20"
         style="fill:#000000;fill-opacity:1;fill-rule:nonzero;stroke:none"
         id="path138"
         inkscape:connector-curvature="0" /><path
         d="m 1721.63,383.391 v -20"
         style="fill:none;stroke:#000000;stroke-width:6;stroke-linecap:butt;stroke-linejoin:round;stroke-miterlimit:10;stroke-dasharray:none;stroke-opacity:1"
         id="path140"
         inkscape:connector-curvature="0" /><path
         d="m 1878.95,383.391 v -20"
         style="fill:#000000;fill-opacity:1;fill-rule:nonzero;stroke:none"
         id="path142"
         inkscape:connector-curvature="0" /><path
         d="m 1878.95,383.391 v -20"
         style="fill:none;stroke:#000000;stroke-width:6;stroke-linecap:butt;stroke-linejoin:round;stroke-miterlimit:10;stroke-dasharray:none;stroke-opacity:1"
         id="path144"
         inkscape:connector-curvature="0" /><path
         d="m 2007.48,383.391 v -20"
         style="fill:#000000;fill-opacity:1;fill-rule:nonzero;stroke:none"
         id="path146"
         inkscape:connector-curvature="0" /><path
         d="m 2007.48,383.391 v -20"
         style="fill:none;stroke:#000000;stroke-width:6;stroke-linecap:butt;stroke-linejoin:round;stroke-miterlimit:10;stroke-dasharray:none;stroke-opacity:1"
         id="path148"
         inkscape:connector-curvature="0" /><path
         d="m 2116.15,383.391 v -20"
         style="fill:#000000;fill-opacity:1;fill-rule:nonzero;stroke:none"
         id="path150"
         inkscape:connector-curvature="0" /><path
         d="m 2116.15,383.391 v -20"
         style="fill:none;stroke:#000000;stroke-width:6;stroke-linecap:butt;stroke-linejoin:round;stroke-miterlimit:10;stroke-dasharray:none;stroke-opacity:1"
         id="path152"
         inkscape:connector-curvature="0" /><path
         d="m 2210.29,383.391 v -20"
         style="fill:#000000;fill-opacity:1;fill-rule:nonzero;stroke:none"
         id="path154"
         inkscape:connector-curvature="0" /><path
         d="m 2210.29,383.391 v -20"
         style="fill:none;stroke:#000000;stroke-width:6;stroke-linecap:butt;stroke-linejoin:round;stroke-miterlimit:10;stroke-dasharray:none;stroke-opacity:1"
         id="path156"
         inkscape:connector-curvature="0" /><path
         d="m 2293.32,383.391 v -20"
         style="fill:#000000;fill-opacity:1;fill-rule:nonzero;stroke:none"
         id="path158"
         inkscape:connector-curvature="0" /><path
         d="m 2293.32,383.391 v -20"
         style="fill:none;stroke:#000000;stroke-width:6;stroke-linecap:butt;stroke-linejoin:round;stroke-miterlimit:10;stroke-dasharray:none;stroke-opacity:1"
         id="path160"
         inkscape:connector-curvature="0" /><path
         d="m 2856.25,383.391 v -20"
         style="fill:#000000;fill-opacity:1;fill-rule:nonzero;stroke:none"
         id="path162"
         inkscape:connector-curvature="0" /><path
         d="m 2856.25,383.391 v -20"
         style="fill:none;stroke:#000000;stroke-width:6;stroke-linecap:butt;stroke-linejoin:round;stroke-miterlimit:10;stroke-dasharray:none;stroke-opacity:1"
         id="path164"
         inkscape:connector-curvature="0" /><path
         d="m 3142.1,383.391 v -20"
         style="fill:#000000;fill-opacity:1;fill-rule:nonzero;stroke:none"
         id="path166"
         inkscape:connector-curvature="0" /><path
         d="m 3142.1,383.391 v -20"
         style="fill:none;stroke:#000000;stroke-width:6;stroke-linecap:butt;stroke-linejoin:round;stroke-miterlimit:10;stroke-dasharray:none;stroke-opacity:1"
         id="path168"
         inkscape:connector-curvature="0" /><path
         d="m 3344.91,383.391 v -20"
         style="fill:#000000;fill-opacity:1;fill-rule:nonzero;stroke:none"
         id="path170"
         inkscape:connector-curvature="0" /><path
         d="m 3344.91,383.391 v -20"
         style="fill:none;stroke:#000000;stroke-width:6;stroke-linecap:butt;stroke-linejoin:round;stroke-miterlimit:10;stroke-dasharray:none;stroke-opacity:1"
         id="path172"
         inkscape:connector-curvature="0" /><path
         d="m 3502.22,383.391 v -20"
         style="fill:#000000;fill-opacity:1;fill-rule:nonzero;stroke:none"
         id="path174"
         inkscape:connector-curvature="0" /><path
         d="m 3502.22,383.391 v -20"
         style="fill:none;stroke:#000000;stroke-width:6;stroke-linecap:butt;stroke-linejoin:round;stroke-miterlimit:10;stroke-dasharray:none;stroke-opacity:1"
         id="path176"
         inkscape:connector-curvature="0" /><path
         d="m 3630.75,383.391 v -20"
         style="fill:#000000;fill-opacity:1;fill-rule:nonzero;stroke:none"
         id="path178"
         inkscape:connector-curvature="0" /><path
         d="m 3630.75,383.391 v -20"
         style="fill:none;stroke:#000000;stroke-width:6;stroke-linecap:butt;stroke-linejoin:round;stroke-miterlimit:10;stroke-dasharray:none;stroke-opacity:1"
         id="path180"
         inkscape:connector-curvature="0" /><path
         d="m 3739.42,383.391 v -20"
         style="fill:#000000;fill-opacity:1;fill-rule:nonzero;stroke:none"
         id="path182"
         inkscape:connector-curvature="0" /><path
         d="m 3739.42,383.391 v -20"
         style="fill:none;stroke:#000000;stroke-width:6;stroke-linecap:butt;stroke-linejoin:round;stroke-miterlimit:10;stroke-dasharray:none;stroke-opacity:1"
         id="path184"
         inkscape:connector-curvature="0" /><path
         d="m 3833.56,383.391 v -20"
         style="fill:#000000;fill-opacity:1;fill-rule:nonzero;stroke:none"
         id="path186"
         inkscape:connector-curvature="0" /><path
         d="m 3833.56,383.391 v -20"
         style="fill:none;stroke:#000000;stroke-width:6;stroke-linecap:butt;stroke-linejoin:round;stroke-miterlimit:10;stroke-dasharray:none;stroke-opacity:1"
         id="path188"
         inkscape:connector-curvature="0" /><path
         d="m 3916.6,383.391 v -20"
         style="fill:#000000;fill-opacity:1;fill-rule:nonzero;stroke:none"
         id="path190"
         inkscape:connector-curvature="0" /><path
         d="m 3916.6,383.391 v -20"
         style="fill:none;stroke:#000000;stroke-width:6;stroke-linecap:butt;stroke-linejoin:round;stroke-miterlimit:10;stroke-dasharray:none;stroke-opacity:1"
         id="path192"
         inkscape:connector-curvature="0" /><g
         id="g194"
         transform="scale(10)"><text
   transform="matrix(1,0,0,-1,170.19,8.74531)"
   style="font-variant:normal;font-weight:normal;font-size:10px;font-family:Arial;-inkscape-font-specification:Arial;writing-mode:lr-tb;fill:#000000;fill-opacity:1;fill-rule:nonzero;stroke:none"
   id="text198"><tspan
     x="0 6.8406224 13.178511 19.526167 25.864056 28.642567 34.770294 38.881615 42.060516 45.580517 49.691833 55.844177 62.191833 68.529732 74.682076 81.019981 86.518028 92.435997 95.614899 98.393021 104.73092 107.90982 112.02114 118.14887 124.49653 127.86567"
     y="0"
     sodipodi:role="line"
     id="tspan196">Angular frequency in rad/s</tspan></text>


</g></g></g><g
     id="g200"><g
       id="g202"
       clip-path="url(#clipPath206)"><path
         d="M 582,510.051 H 4153.2"
         style="fill:none;stroke:#b0b0b0;stroke-width:8;stroke-linecap:square;stroke-linejoin:round;stroke-miterlimit:10;stroke-dasharray:none;stroke-opacity:1"
         id="path208"
         inkscape:connector-curvature="0" /></g></g><g
     id="g210"><g
       id="g212"
       clip-path="url(#clipPath216)"><path
         d="M 582,510.051 H 547"
         style="fill:#000000;fill-opacity:1;fill-rule:nonzero;stroke:none"
         id="path218"
         inkscape:connector-curvature="0" /><path
         d="M 582,510.051 H 547"
         style="fill:none;stroke:#000000;stroke-width:8;stroke-linecap:butt;stroke-linejoin:round;stroke-miterlimit:10;stroke-dasharray:none;stroke-opacity:1"
         id="path220"
         inkscape:connector-curvature="0" /><g
         id="g222"
         transform="scale(10)"><text
   transform="matrix(1,0,0,-1,30.1063,47.2082)"
   style="font-variant:normal;font-weight:normal;font-size:10px;font-family:Arial;-inkscape-font-specification:Arial;writing-mode:lr-tb;fill:#000000;fill-opacity:1;fill-rule:nonzero;stroke:none"
   id="text226"><tspan
     sodipodi:role="line"
     id="tspan224"
     x="0"
     y="9.0075445" /></text>


</g></g></g><g
     id="g228"><g
       id="g230"
       clip-path="url(#clipPath234)"><path
         d="M 582,987.578 H 4153.2"
         style="fill:none;stroke:#b0b0b0;stroke-width:8;stroke-linecap:square;stroke-linejoin:round;stroke-miterlimit:10;stroke-dasharray:none;stroke-opacity:1"
         id="path236"
         inkscape:connector-curvature="0" /></g></g><g
     id="g238"><g
       id="g240"
       clip-path="url(#clipPath244)"><path
         d="M 582,987.578 H 547"
         style="fill:#000000;fill-opacity:1;fill-rule:nonzero;stroke:none"
         id="path246"
         inkscape:connector-curvature="0" /><path
         d="M 582,987.578 H 547"
         style="fill:none;stroke:#000000;stroke-width:8;stroke-linecap:butt;stroke-linejoin:round;stroke-miterlimit:10;stroke-dasharray:none;stroke-opacity:1"
         id="path248"
         inkscape:connector-curvature="0" /><g
         id="g250"
         transform="scale(10)"><text
   transform="matrix(1,0,0,-1,36.4656,94.9609)"
   style="font-variant:normal;font-weight:normal;font-size:10px;font-family:Arial;-inkscape-font-specification:Arial;writing-mode:lr-tb;fill:#000000;fill-opacity:1;fill-rule:nonzero;stroke:none"
   id="text254"><tspan
     x="0 8.3789043"
     y="0"
     sodipodi:role="line"
     id="tspan252">−8</tspan></text>


</g></g></g><g
     id="g256"><g
       id="g258"
       clip-path="url(#clipPath262)"><path
         d="M 582,1465.1 H 4153.2"
         style="fill:none;stroke:#b0b0b0;stroke-width:8;stroke-linecap:square;stroke-linejoin:round;stroke-miterlimit:10;stroke-dasharray:none;stroke-opacity:1"
         id="path264"
         inkscape:connector-curvature="0" /></g></g><g
     id="g266"><g
       id="g268"
       clip-path="url(#clipPath272)"><path
         d="M 582,1465.1 H 547"
         style="fill:#000000;fill-opacity:1;fill-rule:nonzero;stroke:none"
         id="path274"
         inkscape:connector-curvature="0" /><path
         d="M 582,1465.1 H 547"
         style="fill:none;stroke:#000000;stroke-width:8;stroke-linecap:butt;stroke-linejoin:round;stroke-miterlimit:10;stroke-dasharray:none;stroke-opacity:1"
         id="path276"
         inkscape:connector-curvature="0" /><g
         id="g278"
         transform="scale(10)"><text
   transform="matrix(1,0,0,-1,36.4656,142.713)"
   style="font-variant:normal;font-weight:normal;font-size:10px;font-family:Arial;-inkscape-font-specification:Arial;writing-mode:lr-tb;fill:#000000;fill-opacity:1;fill-rule:nonzero;stroke:none"
   id="text282"><tspan
     x="0 8.3789043"
     y="0"
     sodipodi:role="line"
     id="tspan280">−6</tspan></text>


</g></g></g><g
     id="g284"><g
       id="g286"
       clip-path="url(#clipPath290)"><path
         d="M 582,1942.63 H 4153.2"
         style="fill:none;stroke:#b0b0b0;stroke-width:8;stroke-linecap:square;stroke-linejoin:round;stroke-miterlimit:10;stroke-dasharray:none;stroke-opacity:1"
         id="path292"
         inkscape:connector-curvature="0" /></g></g><g
     id="g294"><g
       id="g296"
       clip-path="url(#clipPath300)"><path
         d="M 582,1942.63 H 547"
         style="fill:#000000;fill-opacity:1;fill-rule:nonzero;stroke:none"
         id="path302"
         inkscape:connector-curvature="0" /><path
         d="M 582,1942.63 H 547"
         style="fill:none;stroke:#000000;stroke-width:8;stroke-linecap:butt;stroke-linejoin:round;stroke-miterlimit:10;stroke-dasharray:none;stroke-opacity:1"
         id="path304"
         inkscape:connector-curvature="0" /><g
         id="g306"
         transform="scale(10)"><text
   transform="matrix(1,0,0,-1,36.4656,190.466)"
   style="font-variant:normal;font-weight:normal;font-size:10px;font-family:Arial;-inkscape-font-specification:Arial;writing-mode:lr-tb;fill:#000000;fill-opacity:1;fill-rule:nonzero;stroke:none"
   id="text310"><tspan
     x="0 8.3789043"
     y="0"
     sodipodi:role="line"
     id="tspan308">−4</tspan></text>


</g></g></g><g
     id="g312"><g
       id="g314"
       clip-path="url(#clipPath318)"><path
         d="M 582,2420.16 H 4153.2"
         style="fill:none;stroke:#b0b0b0;stroke-width:8;stroke-linecap:square;stroke-linejoin:round;stroke-miterlimit:10;stroke-dasharray:none;stroke-opacity:1"
         id="path320"
         inkscape:connector-curvature="0" /></g></g><g
     id="g322"><g
       id="g324"
       clip-path="url(#clipPath328)"><path
         d="M 582,2420.16 H 547"
         style="fill:#000000;fill-opacity:1;fill-rule:nonzero;stroke:none"
         id="path330"
         inkscape:connector-curvature="0" /><path
         d="M 582,2420.16 H 547"
         style="fill:none;stroke:#000000;stroke-width:8;stroke-linecap:butt;stroke-linejoin:round;stroke-miterlimit:10;stroke-dasharray:none;stroke-opacity:1"
         id="path332"
         inkscape:connector-curvature="0" /><g
         id="g334"
         transform="scale(10)"><text
   transform="matrix(1,0,0,-1,36.4656,238.219)"
   style="font-variant:normal;font-weight:normal;font-size:10px;font-family:Arial;-inkscape-font-specification:Arial;writing-mode:lr-tb;fill:#000000;fill-opacity:1;fill-rule:nonzero;stroke:none"
   id="text338"><tspan
     x="0 8.3789043"
     y="0"
     sodipodi:role="line"
     id="tspan336">−2</tspan></text>


</g></g></g><g
     id="g340"><g
       id="g342"
       clip-path="url(#clipPath346)"><path
         d="M 582,2897.68 H 4153.2"
         style="fill:none;stroke:#b0b0b0;stroke-width:8;stroke-linecap:square;stroke-linejoin:round;stroke-miterlimit:10;stroke-dasharray:none;stroke-opacity:1"
         id="path348"
         inkscape:connector-curvature="0" /></g></g><g
     id="g350"><g
       id="g352"
       clip-path="url(#clipPath356)"><path
         d="M 582,2897.68 H 547"
         style="fill:#000000;fill-opacity:1;fill-rule:nonzero;stroke:none"
         id="path358"
         inkscape:connector-curvature="0" /><path
         d="M 582,2897.68 H 547"
         style="fill:none;stroke:#000000;stroke-width:8;stroke-linecap:butt;stroke-linejoin:round;stroke-miterlimit:10;stroke-dasharray:none;stroke-opacity:1"
         id="path360"
         inkscape:connector-curvature="0" /><g
         id="g362"
         transform="scale(10)"><text
   transform="matrix(1,0,0,-1,44.8406,285.971)"
   style="font-variant:normal;font-weight:normal;font-size:10px;font-family:Arial;-inkscape-font-specification:Arial;writing-mode:lr-tb;fill:#000000;fill-opacity:1;fill-rule:nonzero;stroke:none"
   id="text366"><tspan
     x="0"
     y="0"
     id="tspan364">0</tspan></text>


<text
   transform="matrix(0,1,1,0,24.0281,144.435)"
   style="font-variant:normal;font-weight:normal;font-size:10px;font-family:Arial;-inkscape-font-specification:Arial;writing-mode:lr-tb;fill:#000000;fill-opacity:1;fill-rule:nonzero;stroke:none"
   id="text370"><tspan
     x="0 7.7492189 13.876948 16.655458 22.993347 26.171858 28.950369 35.288258 38.466766 44.814423"
     y="0"
     sodipodi:role="line"
     id="tspan368">Gain in dB</tspan></text>


</g></g></g><g
     id="g372"><g
       id="g374"
       clip-path="url(#clipPath378)"><path
         d="m 744.328,2897.67 32.793,-0.01 h 65.586 32.793 32.793 32.793 l 32.797,-0.01 h 32.797 32.79 l 32.79,-0.01 h 32.79 32.8 l 32.79,-0.01 h 32.79 l 32.8,-0.01 32.79,-0.01 h 32.8 l 32.79,-0.01 32.79,-0.01 h 32.8 l 32.79,-0.02 32.79,-0.01 32.79,-0.01 32.8,-0.01 32.79,-0.01 32.8,-0.02 32.79,-0.02 32.79,-0.02 32.8,-0.02 32.79,-0.02 32.79,-0.02 32.79,-0.03 32.8,-0.03 32.79,-0.04 32.8,-0.03 32.79,-0.05 32.79,-0.04 32.8,-0.05 32.79,-0.05 32.79,-0.07 32.8,-0.06 32.79,-0.08 32.79,-0.08 32.8,-0.09 32.79,-0.11 32.79,-0.11 32.8,-0.13 32.79,-0.14 32.79,-0.16 32.8,-0.18 32.79,-0.2 32.79,-0.23 32.8,-0.26 32.79,-0.3 32.79,-0.33 32.8,-0.38 32.79,-0.44 32.79,-0.51 32.8,-0.59 32.79,-0.68 32.79,-0.81 32.8,-0.96 32.79,-1.15 32.8,-1.4 32.79,-1.71 32.79,-2.13 32.79,-2.71 32.8,-3.5 32.79,-4.66 32.79,-6.38 32.8,-9.09 32.79,-13.61 32.8,-21.75 32.79,-38.01 32.79,-75.41 32.8,-180.71 32.79,-569.36 32.79,-1455.266 32.79,1515.436 32.8,560.27 32.79,169.77 32.8,67.57 32.79,32.57 32.79,17.86 32.8,10.73 32.79,6.89 32.79,4.65 32.79,3.28 32.8,2.38 32.79,1.78 32.8,1.36 32.79,1.05 32.79,0.84 32.8,0.67 32.79,0.54 32.79,0.45 32.8,0.37 32.79,0.31 32.79,0.26"
         style="fill:none;stroke:#1f77b4;stroke-width:15;stroke-linecap:square;stroke-linejoin:round;stroke-miterlimit:10;stroke-dasharray:none;stroke-opacity:1"
         id="path380"
         inkscape:connector-curvature="0" /><path
         d="m 3174.61,2151.39 c 7.96,0 15.59,3.16 21.21,8.79 5.63,5.62 8.79,13.25 8.79,21.21 0,7.96 -3.16,15.59 -8.79,21.21 -5.62,5.63 -13.25,8.79 -21.21,8.79 -7.96,0 -15.59,-3.16 -21.21,-8.79 -5.63,-5.62 -8.79,-13.25 -8.79,-21.21 0,-7.96 3.16,-15.59 8.79,-21.21 5.62,-5.63 13.25,-8.79 21.21,-8.79"
         style="fill:#ff0000;fill-opacity:1;fill-rule:nonzero;stroke:none"
         id="path382"
         inkscape:connector-curvature="0" /><path
         d="m 3174.61,2151.39 c 7.96,0 15.59,3.16 21.21,8.79 5.63,5.62 8.79,13.25 8.79,21.21 0,7.96 -3.16,15.59 -8.79,21.21 -5.62,5.63 -13.25,8.79 -21.21,8.79 -7.96,0 -15.59,-3.16 -21.21,-8.79 -5.63,-5.62 -8.79,-13.25 -8.79,-21.21 0,-7.96 3.16,-15.59 8.79,-21.21 5.62,-5.63 13.25,-8.79 21.21,-8.79 z"
         style="fill:none;stroke:#ff0000;stroke-width:10;stroke-linecap:butt;stroke-linejoin:round;stroke-miterlimit:10;stroke-dasharray:none;stroke-opacity:1"
         id="path384"
         inkscape:connector-curvature="0" /><path
         d="m 3411.82,2151.39 c 7.96,0 15.59,3.16 21.22,8.79 5.62,5.62 8.78,13.25 8.78,21.21 0,7.96 -3.16,15.59 -8.78,21.21 -5.63,5.63 -13.26,8.79 -21.22,8.79 -7.96,0 -15.59,-3.16 -21.21,-8.79 -5.63,-5.62 -8.79,-13.25 -8.79,-21.21 0,-7.96 3.16,-15.59 8.79,-21.21 5.62,-5.63 13.25,-8.79 21.21,-8.79"
         style="fill:#ff0000;fill-opacity:1;fill-rule:nonzero;stroke:none"
         id="path386"
         inkscape:connector-curvature="0" /><path
         d="m 3411.82,2151.39 c 7.96,0 15.59,3.16 21.22,8.79 5.62,5.62 8.78,13.25 8.78,21.21 0,7.96 -3.16,15.59 -8.78,21.21 -5.63,5.63 -13.26,8.79 -21.22,8.79 -7.96,0 -15.59,-3.16 -21.21,-8.79 -5.63,-5.62 -8.79,-13.25 -8.79,-21.21 0,-7.96 3.16,-15.59 8.79,-21.21 5.62,-5.63 13.25,-8.79 21.21,-8.79 z"
         style="fill:none;stroke:#ff0000;stroke-width:10;stroke-linecap:butt;stroke-linejoin:round;stroke-miterlimit:10;stroke-dasharray:none;stroke-opacity:1"
         id="path388"
         inkscape:connector-curvature="0" /><path
         d="m 3303.14,480.051 c 7.96,0 15.59,3.16 21.21,8.785 5.63,5.625 8.79,13.258 8.79,21.215 0,7.957 -3.16,15.586 -8.79,21.211 -5.62,5.629 -13.25,8.789 -21.21,8.789 -7.96,0 -15.59,-3.16 -21.21,-8.789 -5.63,-5.625 -8.79,-13.254 -8.79,-21.211 0,-7.957 3.16,-15.59 8.79,-21.215 5.62,-5.625 13.25,-8.785 21.21,-8.785"
         style="fill:#ff0000;fill-opacity:1;fill-rule:nonzero;stroke:none"
         id="path390"
         inkscape:connector-curvature="0" /><path
         d="m 3303.14,480.051 c 7.96,0 15.59,3.16 21.21,8.785 5.63,5.625 8.79,13.258 8.79,21.215 0,7.957 -3.16,15.586 -8.79,21.211 -5.62,5.629 -13.25,8.789 -21.21,8.789 -7.96,0 -15.59,-3.16 -21.21,-8.789 -5.63,-5.625 -8.79,-13.254 -8.79,-21.211 0,-7.957 3.16,-15.59 8.79,-21.215 5.62,-5.625 13.25,-8.785 21.21,-8.785 z"
         style="fill:none;stroke:#ff0000;stroke-width:10;stroke-linecap:butt;stroke-linejoin:round;stroke-miterlimit:10;stroke-dasharray:none;stroke-opacity:1"
         id="path392"
         inkscape:connector-curvature="0" /></g></g><g
     id="g394"><g
       id="g396"
       clip-path="url(#clipPath400)"><path
         d="M 582,383.391 V 3022.34"
         style="fill:none;stroke:#000000;stroke-width:8;stroke-linecap:square;stroke-linejoin:miter;stroke-miterlimit:10;stroke-dasharray:none;stroke-opacity:1"
         id="path402"
         inkscape:connector-curvature="0" /><path
         d="M 4153.2,383.391 V 3022.34"
         style="fill:none;stroke:#000000;stroke-width:8;stroke-linecap:square;stroke-linejoin:miter;stroke-miterlimit:10;stroke-dasharray:none;stroke-opacity:1"
         id="path404"
         inkscape:connector-curvature="0" /><path
         d="M 582,383.391 H 4153.2"
         style="fill:none;stroke:#000000;stroke-width:8;stroke-linecap:square;stroke-linejoin:miter;stroke-miterlimit:10;stroke-dasharray:none;stroke-opacity:1"
         id="path406"
         inkscape:connector-curvature="0" /><path
         d="M 582,3022.34 H 4153.2"
         style="fill:none;stroke:#000000;stroke-width:8;stroke-linecap:square;stroke-linejoin:miter;stroke-miterlimit:10;stroke-dasharray:none;stroke-opacity:1"
         id="path408"
         inkscape:connector-curvature="0" /></g></g></g><path
   style="fill:none;fill-opacity:1;stroke:#df0000;stroke-width:0.52500004;stroke-linecap:butt;stroke-linejoin:miter;stroke-miterlimit:4;stroke-dasharray:none;stroke-opacity:1"
   d="M 341.09244,218.37182 H 57.408901"
   id="path4113"
   inkscape:connector-curvature="0" /><text
   xml:space="preserve"
   style="font-style:normal;font-weight:normal;font-size:30px;line-height:1.25;font-family:sans-serif;letter-spacing:0px;word-spacing:0px;fill:#e70000;fill-opacity:1;stroke:none;stroke-width:0.75;stroke-opacity:1"
   x="-5.2312875"
   y="-215.2412"
   id="text4117"
   transform="scale(1,-1)"><tspan
     sodipodi:role="line"
     id="tspan4115"
     x="-5.2312875"
     y="-215.2412"
     style="font-size:10px;fill:#e70000;fill-opacity:1;stroke:none;stroke-width:0.75;stroke-opacity:1">V<tspan
   style="font-size:64.99999762%;baseline-shift:sub"
   id="tspan1044">bw,dB</tspan>=-3dB</tspan></text>


<text
   xml:space="preserve"
   style="font-style:normal;font-weight:normal;font-size:30px;line-height:1.25;font-family:sans-serif;letter-spacing:0px;word-spacing:0px;fill:#000000;fill-opacity:1;stroke:none;stroke-width:0.75"
   x="17.372608"
   y="-48.815834"
   id="text4926"
   transform="scale(1,-1)"><tspan
     sodipodi:role="line"
     id="tspan4924"
     x="17.372608"
     y="-48.815834"
     style="font-size:10px;fill:#f60000;fill-opacity:1;stroke-width:0.75"><tspan
       style="font-size:10px;baseline-shift:sub;fill:#f60000;fill-opacity:1"
       id="tspan4928">V</tspan><tspan
       style="font-size:64.99999762%;baseline-shift:sub"
       id="tspan1052">notch,dB</tspan></tspan></text>


<path
   style="fill:none;fill-opacity:1;stroke:#df0000;stroke-width:0.52500004;stroke-linecap:butt;stroke-linejoin:miter;stroke-miterlimit:4;stroke-dasharray:none;stroke-opacity:1"
   d="M 329.55112,51.0051 H 58.2"
   id="path4113-3"
   inkscape:connector-curvature="0" /><path
   style="fill:none;stroke:#f40000;stroke-width:0.42145315;stroke-linecap:butt;stroke-linejoin:miter;stroke-miterlimit:4;stroke-dasharray:none;stroke-opacity:1"
   d="M 330.221,50.334402 V 38.333149"
   id="path4945"
   inkscape:connector-curvature="0" /><text
   xml:space="preserve"
   style="font-style:normal;font-weight:normal;font-size:30px;line-height:1.25;font-family:sans-serif;letter-spacing:0px;word-spacing:0px;fill:#e70000;fill-opacity:1;stroke:none;stroke-width:0.75;stroke-opacity:1"
   x="322.64694"
   y="-30.794855"
   id="text4117-3"
   transform="scale(1,-1)"><tspan
     sodipodi:role="line"
     id="tspan4115-1"
     x="322.64694"
     y="-30.794855"
     style="font-size:10px;fill:#e70000;fill-opacity:1;stroke:none;stroke-width:0.75;stroke-opacity:1">w<tspan
   style="font-size:64.99999762%;baseline-shift:sub"
   id="tspan4965">n</tspan></tspan></text>


<path
   style="fill:none;fill-opacity:1;stroke:#df0000;stroke-width:0.35735828;stroke-linecap:butt;stroke-linejoin:miter;stroke-miterlimit:4;stroke-dasharray:none;stroke-opacity:1"
   d="M 341.09244,14.412641 V 218.37182"
   id="path4113-0"
   inkscape:connector-curvature="0" /><path
   style="fill:none;fill-opacity:1;stroke:#df0000;stroke-width:0.35735828;stroke-linecap:butt;stroke-linejoin:miter;stroke-miterlimit:4;stroke-dasharray:none;stroke-opacity:1"
   d="M 317.461,14.179811 V 218.139"
   id="path4113-0-3"
   inkscape:connector-curvature="0" /><path
   style="fill:none;stroke:#f80000;stroke-width:0.52500004;stroke-linecap:butt;stroke-linejoin:miter;stroke-miterlimit:4;stroke-dasharray:none;stroke-opacity:1;marker-start:url(#Arrow2Lstart);marker-end:url(#Arrow2Lend)"
   d="m 318.11072,17.985694 h 22.16419"
   id="path4997"
   inkscape:connector-curvature="0" /><text
   xml:space="preserve"
   style="font-style:normal;font-weight:normal;font-size:30px;line-height:1.25;font-family:sans-serif;letter-spacing:0px;word-spacing:0px;fill:#e70000;fill-opacity:1;stroke:none;stroke-width:0.75;stroke-opacity:1"
   x="321.48026"
   y="-8.4466686"
   id="text4117-3-0"
   transform="scale(1,-1)"><tspan
     sodipodi:role="line"
     id="tspan4115-1-3"
     x="321.48026"
     y="-8.4466686"
     style="font-size:10px;fill:#e70000;fill-opacity:1;stroke:none;stroke-width:0.75;stroke-opacity:1">w<tspan
   style="font-size:64.99999762%;baseline-shift:sub"
   id="tspan5382">bw</tspan></tspan></text>


</g></svg>